<mxfile host="app.diagrams.net" modified="2024-05-21T13:57:04.179Z" agent="Mozilla/5.0 (Windows NT 10.0; Win64; x64) AppleWebKit/537.36 (KHTML, like Gecko) Chrome/125.0.0.0 Safari/537.36 Edg/125.0.0.0" version="24.3.1" etag="XvbB0hbrK3XpVn2m2jPf" type="github">
  <diagram name="Page-1" id="LqTnJuOXdFq2tDWmIdBu">
    <mxGraphModel>
      <root>
        <mxCell id="0" />
        <mxCell id="1" parent="0" />
      </root>
    </mxGraphModel>
  </diagram>
</mxfile>
